# xmcd CD database file
#
# Track frame offsets:
#	150
#	16157
#	32992
#	46197
#	62635
#	78900
#	99895
#	116855
#	131900
#	145622
#	158117
#
# Disc length: 2318 seconds
#
# Revision: 4
# Processed by: cddbd v1.5.2PL0 Copyright (c) Steve Scherf et al.
# Submitted via: CDex 1.70beta2
#
DISCID=88090c0b
DTITLE=Morgan, Lorrie (USA-cty-95) - Greatest His
DYEAR=1995
DGENRE=Country
TTITLE0=Five Minutes
TTITLE1=Dear Me
TTITLE2=Except For Monday
TTITLE3=A Picture Of Me (Without You)
TTITLE4=Watch Me
TTITLE5=Something In Red
TTITLE6=Back In Your Arms Again
TTITLE7=I Didn't Know My Own Strength
TTITLE8=Standing Tall
TTITLE9=What Part Of No
TTITLE10='Til  A Tear Becomes A Rose (Duet With Keith Whitley)
EXTD=YEAR: 1995
EXTT0=
EXTT1=
EXTT2=
EXTT3=
EXTT4=
EXTT5=
EXTT6=
EXTT7=
EXTT8=
EXTT9=
EXTT10=
PLAYORDER=
